Coordinates
version=1
nRows=11
nColumns=42
inDegrees=yes

Units are S.I. units (second, meters, Newtons, ...)
If the header above contains a line with 'inDegrees', this indicates whether rotational values are in degrees (yes) or radians (no).

endheader
time	pelvis_tilt	pelvis_list	pelvis_rotation	pelvis_tx	pelvis_ty	pelvis_tz	hip_flexion_r	hip_adduction_r	hip_rotation_r	knee_angle_r	knee_adduction_r	knee_angle_r_beta	ankle_angle_r	subtalar_angle_r	mtp_angle_r	hip_flexion_l	hip_adduction_l	hip_rotation_l	knee_angle_l	knee_adduction_l	knee_angle_l_beta	ankle_angle_l	subtalar_angle_l	mtp_angle_l	lumbar_extension	lumbar_bending	lumbar_rotation	arm_flex_r	arm_add_r	arm_rot_r	elbow_flex_r	pro_sup_r	wrist_flex_r	wrist_dev_r	arm_flex_l	arm_add_l	arm_rot_l	elbow_flex_l	pro_sup_l	wrist_flex_l	wrist_dev_l
      0.50000000	      2.82481562	     -9.44870892	     -3.88076556	     -1.67234152	      0.83230103	      0.35349718	      6.92534475	      7.38214630	    -26.32414180	     20.89511076	     -2.63837666	      0.36468848	     15.74695943	     24.02098854	     -9.55747095	     -2.08197315	    -16.53419814	    -18.49229222	     42.52601352	     -8.11395382	      0.74221895	     18.78085292	     27.45025955	     -9.55747095	    -22.21746638	     11.98978627	      3.17611842	    -10.27802177	     -3.55090129	    -10.38433290	    108.45830565	     90.00000001	      0.00000000	      0.00000000	     -6.13685524	    -10.13623949	    -25.05117908	     46.11764711	     90.00000001	      0.00000000	      0.00000000
      0.51000000	      2.72070953	     -9.31207378	     -3.91855765	     -1.67023019	      0.83233971	      0.35480443	      6.83637780	      7.35901620	    -26.27321655	     20.81078045	     -2.63513879	      0.36321664	     15.99388446	     24.06383976	     -9.50031994	     -0.88524305	    -16.63808890	    -17.70381162	     44.57303075	     -8.26693371	      0.77794614	     17.29600521	     27.34445057	     -9.50031994	    -22.38495209	     11.88404915	      3.18165764	    -10.58199391	     -3.69496455	    -10.65972873	    108.40464663	     90.00000001	      0.00000000	      0.00000000	     -6.01306156	    -10.09016406	    -25.03236037	     46.39241200	     90.00000001	      0.00000000	      0.00000000
      0.52000000	      2.46067414	     -9.21097967	     -3.98191995	     -1.66832521	      0.83213970	      0.35612313	      6.97028331	      7.39657025	    -26.17580521	     20.79288355	     -2.68448449	      0.36290428	     16.16131183	     24.02444365	     -9.42557234	      0.56351958	    -16.86724217	    -16.78381761	     46.75120453	     -8.18811794	      0.81596245	     16.07050521	     26.89757690	     -9.42557234	    -22.39981260	     11.82856832	      3.15983468	    -10.85492475	     -3.80126480	    -10.93351127	    108.28727218	     90.00000001	      0.00000000	      0.00000000	     -5.91150369	     -9.99411254	    -25.05179284	     46.65108993	     90.00000001	      0.00000000	      0.00000000
      0.53000000	      2.21392586	     -9.10237958	     -4.00883496	     -1.66648728	      0.83195143	      0.35724775	      7.08616552	      7.39886558	    -26.04368670	     20.77692131	     -2.66418921	      0.36262569	     16.33124715	     23.90488192	     -9.33989088	      2.01104030	    -17.06518583	    -15.90035317	     48.81342384	     -8.07993337	      0.85195497	     14.98972420	     26.27625975	     -9.33989088	    -22.42710456	     11.77871405	      3.15606934	    -11.13909497	     -3.97682118	    -11.25985825	    108.14043715	     90.00000001	      0.00000000	      0.00000000	     -5.75914693	     -9.90130695	    -25.08728608	     46.93496136	     90.00000001	      0.00000000	      0.00000000
      0.54000000	      2.00276504	     -8.98039271	     -4.02977269	     -1.66467123	      0.83180131	      0.35823489	      7.15846688	      7.36203449	    -25.90724201	     20.75426977	     -2.62549308	      0.36223034	     16.51494437	     23.79388666	     -9.25569772	      3.41577400	    -17.25203882	    -15.21540440	     50.73308057	     -8.00765410	      0.88545930	     14.03335592	     25.64254279	     -9.25569772	    -22.49554893	     11.72112544	      3.13751237	    -11.38583727	     -4.12881994	    -11.59599468	    108.00370668	     90.00000001	      0.00000000	      0.00000000	     -5.61394825	     -9.79870732	    -25.10898657	     47.22926298	     90.00000001	      0.00000000	      0.00000000
      0.55000000	      1.77289633	     -8.84974182	     -4.04060602	     -1.66295482	      0.83161480	      0.35912968	      7.26034770	      7.29810040	    -25.81643070	     20.73418151	     -2.58058370	      0.36187974	     16.68913790	     23.68633947	     -9.16002127	      4.85266492	    -17.44230171	    -14.66386055	     52.51579579	     -7.93551002	      0.91657355	     13.34520339	     24.86621229	     -9.16002127	    -22.55175505	     11.66029803	      3.13240473	    -11.58927579	     -4.26271418	    -11.87855186	    107.87006204	     90.00000001	      0.00000000	      0.00000000	     -5.43360766	     -9.66281513	    -25.10743517	     47.52527667	     90.00000001	      0.00000000	      0.00000000
      0.56000000	      1.89034789	     -8.60264502	     -4.11778046	     -1.66103053	      0.83193382	      0.35996526	      6.94333859	      7.03144586	    -25.64597858	     20.74049292	     -2.43486741	      0.36198989	     16.81131471	     23.59860269	     -9.13400830	      5.73061357	    -17.45429172	    -14.77551223	     53.83282254	     -8.14877791	      0.93956000	     12.91630149	     24.56095934	     -9.13400830	    -22.96697350	     11.39955755	      3.13919850	    -11.64176924	     -4.38583553	    -12.10881824	    107.74819052	     90.00000001	      0.00000000	      0.00000000	     -5.26553769	     -9.61567118	    -25.06371224	     47.75941798	     90.00000001	      0.00000000	      0.00000000
      0.57000000	      1.60444152	     -8.58362740	     -4.09709811	     -1.65941156	      0.83162047	      0.36056204	      7.09597774	      7.07850960	    -25.59769351	     20.65720431	     -2.40581899	      0.36053623	     17.08336886	     23.67662489	     -9.09035075	      7.28130761	    -17.78846498	    -14.88289084	     55.28421750	     -8.48952623	      0.96489162	     12.47959714	     23.74299623	     -9.09035075	    -22.98717402	     11.50439491	      3.13033990	    -11.76033413	     -4.49838070	    -12.45033190	    107.69974391	     90.00000001	      0.00000000	      0.00000000	     -5.13644853	     -9.47087048	    -25.04575219	     48.15624693	     90.00000001	      0.00000000	      0.00000000
      0.58000000	      1.67607714	     -8.32335143	     -4.19518812	     -1.65768889	      0.83189493	      0.36132105	      6.88529299	      6.80296590	    -25.52744234	     20.70197750	     -2.35007578	      0.36131767	     17.10196574	     23.57846434	     -9.07032540	      8.18243024	    -17.88405910	    -15.19123431	     56.22628742	     -8.51869355	      0.98133384	     12.44536252	     23.35160161	     -9.07032540	    -23.37224356	     11.21000519	      3.15091443	    -11.71975558	     -4.61223649	    -12.52661921	    107.53013242	     90.00000001	      0.00000000	      0.00000000	     -4.91525884	     -9.42240946	    -24.97307864	     48.34394382	     90.00000001	      0.00000000	      0.00000000
      0.59000000	      1.06392096	     -8.37000431	     -4.22965376	     -1.65635750	      0.83106858	      0.36187863	      7.49468655	      6.97206757	    -25.55684875	     20.74581738	     -2.47590747	      0.36208282	     17.34450519	     23.84303526	     -9.01158491	     10.17246073	    -18.37879178	    -15.62022972	     57.45219077	     -8.92482955	      1.00272989	     12.81057650	     21.73519058	     -9.01158491	    -23.04936107	     11.39648024	      3.15210977	    -11.76024515	     -4.68558160	    -12.76160650	    107.52296361	     90.00000001	      0.00000000	      0.00000000	     -4.83811444	     -9.24540293	    -24.92143216	     48.75343319	     90.00000001	      0.00000000	      0.00000000
      0.60000000	      1.01214257	     -8.29616219	     -4.16550817	     -1.65475865	      0.83108615	      0.36219582	      7.37368151	      6.82988260	    -25.65164150	     20.72115456	     -2.28780136	      0.36165237	     17.49304358	     23.89056178	     -8.98235259	     11.36795814	    -18.67364551	    -16.23355570	     58.09487648	     -9.28004289	      1.01394687	     13.22621938	     20.94748956	     -8.98235259	    -23.30326215	     11.39312914	      3.06804249	    -11.65610017	     -4.77741689	    -12.94641364	    107.45635573	     90.00000001	      0.00000000	      0.00000000	     -4.62443941	     -9.18686793	    -24.85744165	     48.93394279	     90.00000001	      0.00000000	      0.00000000
